<svg width="24" height="24" viewBox="0 0 24 24" fill="none" xmlns="http://www.w3.org/2000/svg">
<path d="M11.4801 19.7299C11.283 19.7303 11.0933 19.6552 10.9501 19.5199L3.95005 12.5199C3.6576 12.2271 3.6576 11.7528 3.95005 11.4599L10.9501 4.45994C11.2429 4.16749 11.7172 4.16749 12.0101 4.45994C12.153 4.59923 12.2336 4.79035 12.2336 4.98994C12.2336 5.18953 12.153 5.38065 12.0101 5.51994L5.55005 11.9999L12.0001 18.4499C12.143 18.5892 12.2236 18.7804 12.2236 18.9799C12.2236 19.1795 12.143 19.3707 12.0001 19.5099C11.8646 19.652 11.6763 19.7316 11.4801 19.7299Z" fill="white"/>
<path d="M19.52 12.75H4.52002C4.10581 12.75 3.77002 12.4142 3.77002 12C3.77002 11.5858 4.10581 11.25 4.52002 11.25H19.52C19.9342 11.25 20.27 11.5858 20.27 12C20.27 12.4142 19.9342 12.75 19.52 12.75Z" fill="white"/>
<path d="M11.4801 19.7299C11.283 19.7303 11.0933 19.6552 10.9501 19.5199L3.95005 12.5199C3.6576 12.2271 3.6576 11.7528 3.95005 11.4599L10.9501 4.45994C11.2429 4.16749 11.7172 4.16749 12.0101 4.45994C12.153 4.59923 12.2336 4.79035 12.2336 4.98994C12.2336 5.18953 12.153 5.38065 12.0101 5.51994L5.55005 11.9999L12.0001 18.4499C12.143 18.5892 12.2236 18.7804 12.2236 18.9799C12.2236 19.1795 12.143 19.3707 12.0001 19.5099C11.8646 19.652 11.6763 19.7316 11.4801 19.7299Z" fill="white"/>
<path d="M19.52 12.75H4.52002C4.10581 12.75 3.77002 12.4142 3.77002 12C3.77002 11.5858 4.10581 11.25 4.52002 11.25H19.52C19.9342 11.25 20.27 11.5858 20.27 12C20.27 12.4142 19.9342 12.75 19.52 12.75Z" fill="white"/>
</svg>
