<svg width="78" height="57" viewBox="0 0 78 57" fill="none" xmlns="http://www.w3.org/2000/svg">
<path d="M18.1745 34.1569C15.5218 34.1569 12.8692 34.1569 10.2168 34.1569C10.1157 34.1569 10.0145 34.1552 9.91333 34.1566C9.52113 34.1618 9.22707 33.9786 8.99067 33.6902C8.93502 33.6221 8.89456 33.5417 8.84937 33.4653C8.21335 32.3881 7.57665 31.3109 6.94198 30.2327C6.48705 29.4598 6.03617 28.6846 5.58091 27.9116C4.99682 26.9194 4.4097 25.9286 3.82561 24.9364C3.49411 24.3735 3.167 23.8082 2.83583 23.245C2.533 22.7294 2.2278 22.2154 1.92362 21.7005C1.524 21.0235 1.13247 20.3422 0.722061 19.6714C0.513652 19.3311 0.499151 18.7794 0.709584 18.4401C0.920017 18.1014 1.1146 17.7535 1.31728 17.4102C1.81773 16.5615 2.31987 15.7135 2.81965 14.8642C3.2857 14.0721 3.74805 13.278 4.2141 12.4856C4.65757 11.7315 5.10406 10.9794 5.5482 10.2257C5.86857 9.68196 6.18725 9.13724 6.50729 8.59318C6.96221 7.82059 7.41883 7.04833 7.87375 6.27573C8.18839 5.7416 8.50134 5.20614 8.81497 4.67168C8.85982 4.59528 8.90197 4.5169 8.9529 4.44446C9.18424 4.11505 9.50259 3.93447 9.91232 3.91661C10.002 3.91265 10.0921 3.91562 10.1821 3.91562C15.4986 3.91562 20.8151 3.91562 26.1315 3.91562C26.2327 3.91562 26.3339 3.91364 26.435 3.91695C26.8198 3.92885 27.123 4.09686 27.357 4.39089C27.3982 4.44281 27.4322 4.50036 27.466 4.55758C28.0659 5.57921 28.6648 6.60151 29.2651 7.62281C29.9217 8.73937 30.5793 9.85559 31.2376 10.9712C31.6763 11.715 32.1187 12.4568 32.5568 13.201C33.0063 13.9643 33.4512 14.7303 33.9003 15.4939C34.4672 16.458 35.0338 17.4221 35.6061 18.3829C35.7791 18.6733 35.8337 18.9756 35.7713 19.3036C35.7504 19.4141 35.7116 19.5153 35.655 19.6116C35.3747 20.0891 35.0945 20.5664 34.8132 21.0436C34.594 21.4157 34.3725 21.7865 34.1536 22.1585C33.7098 22.9123 33.2674 23.6667 32.8239 24.4208C32.3582 25.2132 31.8928 26.0053 31.4264 26.7974C30.9883 27.5416 30.5489 28.2854 30.1109 29.0295C29.8751 29.4304 29.6418 29.8325 29.4054 30.2331C29.0563 30.8241 28.7049 31.4138 28.3562 32.0051C28.0581 32.5105 27.7593 33.0159 27.4673 33.5245C27.3361 33.7531 27.1567 33.9274 26.9213 34.0477C26.7901 34.1149 26.6529 34.1595 26.5025 34.1566C26.4013 34.1546 26.3001 34.1569 26.199 34.1569C23.5247 34.1569 20.8498 34.1569 18.1745 34.1569Z" fill="#F8F8F8"/>
<path d="M46.661 19.0472C45.2561 19.0472 43.8509 19.0472 42.446 19.0472C42.3448 19.0472 42.2436 19.0453 42.1424 19.0469C41.5617 19.0568 40.8512 18.6828 40.5328 18.1162C40.1049 17.3539 39.6513 16.6051 39.2072 15.8517C38.763 15.098 38.3162 14.3462 37.8717 13.5928C37.579 13.0967 37.289 12.5996 36.9976 12.1028C36.6729 11.5489 36.3505 10.9932 36.0223 10.4412C35.8028 10.0721 35.7526 9.67657 35.8089 9.26084C35.8406 9.02833 35.9208 8.81501 36.0426 8.61128C36.4459 7.93625 36.8422 7.25726 37.2404 6.57958C37.5827 5.99716 37.924 5.41441 38.2663 4.83199C38.7823 3.95356 39.2979 3.0748 39.8145 2.1967C40.0503 1.79585 40.2883 1.39633 40.5241 0.99548C40.893 0.368079 41.4572 0.0657882 42.1843 0.033707C42.2291 0.0317226 42.2743 0.0333763 42.3192 0.0333763C45.2305 0.0333763 48.1415 0.033707 51.0528 0.0327148C51.2332 0.0327148 51.4116 0.0383373 51.588 0.0806712C52.0901 0.200727 52.4941 0.458369 52.7724 0.890307C52.8742 1.0484 52.9652 1.21343 53.0607 1.37582C53.5996 2.29195 54.1381 3.20842 54.6774 4.12455C55.3343 5.2411 55.9916 6.35733 56.6495 7.47355C56.835 7.78841 57.0228 8.10195 57.2083 8.41681C57.2646 8.51206 57.3156 8.61028 57.3712 8.70587C57.5024 8.9311 57.5597 9.17815 57.5806 9.43216C57.6025 9.69906 57.559 9.96133 57.4525 10.2081C57.387 10.3595 57.3051 10.5054 57.2211 10.6483C56.6839 11.5657 56.145 12.4818 55.6054 13.398C55.0042 14.419 54.4015 15.4389 53.7999 16.4599C53.4964 16.9752 53.1946 17.4911 52.8921 18.0068C52.8583 18.064 52.8209 18.1192 52.7882 18.1771C52.5329 18.6269 51.8881 19.0568 51.213 19.0476C50.9095 19.0433 50.606 19.0472 50.3025 19.0472C49.0888 19.0472 47.8751 19.0472 46.661 19.0472Z" fill="#F8F8F8"/>
<path d="M45.0629 47.1331C45.0629 44.4436 45.0629 41.7541 45.0629 39.0646C45.0629 38.9432 45.0636 38.8222 45.0673 38.7008C45.07 38.6135 45.123 38.5665 45.2197 38.5615C45.2983 38.5576 45.3769 38.5559 45.4555 38.5559C48.1078 38.5556 50.7605 38.5556 53.4128 38.5559C53.773 38.5559 54.1308 38.5973 54.4872 38.6419C54.9445 38.6994 55.3961 38.7864 55.8362 38.925C56.3956 39.101 56.9264 39.3338 57.4131 39.6602C58.1523 40.1563 58.7296 40.7917 59.1161 41.5851C59.3296 42.024 59.4735 42.4887 59.5589 42.9686C59.6779 43.635 59.6833 44.307 59.6317 44.9788C59.5835 45.6098 59.4284 46.2183 59.1653 46.7975C58.9529 47.2651 58.6547 47.6772 58.3007 48.0516C57.9472 48.4253 57.5527 48.7511 57.1122 49.0216C56.8168 49.2032 56.5076 49.3596 56.1869 49.4943C56.1258 49.5197 56.0682 49.5548 56.0122 49.5908C55.9977 49.6001 55.9913 49.6289 55.9909 49.649C55.9906 49.6699 55.9987 49.6927 56.0102 49.7109C56.0567 49.7863 56.1039 49.8614 56.1545 49.9341C56.6179 50.5976 57.0832 51.26 57.5463 51.9238C58.0282 52.6151 58.5077 53.3079 58.9896 53.9992C59.3002 54.4447 59.6145 54.8882 59.9241 55.3343C59.9932 55.4339 60.0519 55.5404 60.1116 55.6456C60.1177 55.6561 60.1008 55.6876 60.0863 55.6988C60.0701 55.711 60.0445 55.715 60.0229 55.7157C59.9332 55.7183 59.8432 55.719 59.7531 55.719C58.5168 55.7193 57.2805 55.7193 56.0442 55.719C55.9542 55.719 55.8645 55.716 55.7744 55.7173C55.6996 55.7183 55.6466 55.6826 55.6048 55.627C55.5579 55.5649 55.5124 55.502 55.4689 55.4379C54.9125 54.6229 54.3564 53.808 53.8006 52.9928C53.2388 52.1686 52.6776 51.3434 52.1155 50.5192C51.9229 50.2371 51.9404 50.2477 51.5982 50.2473C50.8225 50.2467 50.0472 50.2467 49.2716 50.248C49.1822 50.248 49.0929 50.2589 49.0035 50.2659C48.9721 50.2685 48.9168 50.3257 48.9134 50.3558C48.9087 50.3995 48.9016 50.4435 48.9006 50.4871C48.8986 50.5863 48.899 50.6856 48.899 50.7848C48.899 52.284 48.8993 53.7829 48.8983 55.2821C48.8983 55.3919 48.8922 55.502 48.8865 55.6118C48.8834 55.6654 48.8315 55.7104 48.7735 55.713C48.7061 55.716 48.6386 55.718 48.5715 55.718C47.5038 55.7183 46.4361 55.7183 45.3685 55.718C45.3121 55.718 45.2562 55.717 45.1998 55.715C45.1196 55.7117 45.0697 55.6687 45.067 55.5979C45.0636 55.51 45.0626 55.4217 45.0626 55.3333C45.0623 54.9034 45.0623 54.4734 45.0623 54.0438C45.0629 51.7406 45.0629 49.4367 45.0629 47.1331ZM48.8996 44.395C48.8996 45.0886 48.9 45.7821 48.8996 46.4757C48.8993 46.8963 48.8882 46.893 49.3262 46.8927C50.314 46.892 51.3017 46.8914 52.2895 46.893C52.6149 46.8937 52.94 46.8854 53.2648 46.8639C53.4674 46.8507 53.6671 46.8226 53.8627 46.774C54.3156 46.6615 54.7297 46.4733 55.0663 46.1459C55.3677 45.8525 55.5738 45.5079 55.6706 45.0981C55.7583 44.7274 55.7556 44.3553 55.7148 43.9826C55.6972 43.8199 55.6564 43.6565 55.6021 43.5014C55.4639 43.1058 55.2207 42.7833 54.8727 42.536C54.5004 42.2714 54.0782 42.1311 53.6334 42.0504C53.3241 41.9945 53.0112 41.9697 52.6955 41.9704C51.5732 41.9727 50.4506 41.9714 49.3282 41.9714C49.2385 41.9714 49.1485 41.9717 49.0588 41.9754C48.9657 41.979 48.9101 42.0303 48.906 42.1163C48.9013 42.2151 48.8996 42.3144 48.8993 42.4133C48.8993 43.0741 48.8996 43.7345 48.8996 44.395Z" fill="#F8F8F8"/>
<path d="M31.0065 55.7162C29.5682 55.7162 28.1299 55.7155 26.6916 55.7168C26.522 55.7168 26.3557 55.7112 26.1952 55.6477C25.9702 55.5591 25.7811 55.4268 25.6502 55.2244C25.572 55.1033 25.5001 54.9786 25.4273 54.8546C24.9285 54.005 24.4314 53.1547 23.9317 52.3057C23.4879 51.5522 23.0407 50.8005 22.5962 50.0474C22.1686 49.3228 21.743 48.5975 21.3168 47.8722C21.2719 47.7958 21.2264 47.7197 21.1869 47.6407C21.0122 47.2917 21.0079 46.9408 21.1883 46.5932C21.2699 46.4361 21.3613 46.2843 21.451 46.1315C21.9558 45.2726 22.4607 44.4137 22.9665 43.5554C23.4049 42.8116 23.845 42.0688 24.2834 41.3247C24.5923 40.8001 24.8992 40.2746 25.2078 39.75C25.3423 39.5212 25.4752 39.2906 25.6158 39.0651C25.837 38.7092 26.1628 38.522 26.5887 38.5081C26.6784 38.5052 26.7685 38.5068 26.8585 38.5068C29.6339 38.5068 32.4094 38.5068 35.1848 38.5068C35.2634 38.5068 35.3423 38.5061 35.4208 38.5075C35.8478 38.5157 36.1789 38.7006 36.4022 39.0515C36.616 39.3879 36.8092 39.7368 37.0116 40.0798C37.3323 40.6232 37.6537 41.1662 37.9737 41.71C38.3106 42.2821 38.6461 42.8556 38.983 43.4278C39.2973 43.9619 39.6126 44.4957 39.9276 45.0295C40.22 45.5253 40.5168 46.0188 40.8034 46.5178C41.0233 46.9005 41.0368 47.2934 40.8179 47.6837C40.6881 47.9152 40.5528 48.144 40.4183 48.3729C40.1148 48.8879 39.8099 49.4022 39.5064 49.9171C39.1635 50.4989 38.8208 51.0806 38.4785 51.6627C38.1585 52.2064 37.8388 52.7502 37.5191 53.2939C37.1822 53.8664 36.8457 54.4389 36.5084 55.0111C36.4636 55.0871 36.4207 55.1652 36.3685 55.2366C36.1452 55.5429 35.8434 55.7092 35.4559 55.7162C35.3662 55.7178 35.2762 55.7168 35.1861 55.7168C33.7934 55.7162 32.3999 55.7162 31.0065 55.7162ZM31.0388 41.7351C30.1516 41.7354 29.264 41.7397 28.3767 41.7331C28.0145 41.7305 27.7562 41.8684 27.5812 42.1836C27.3721 42.5606 27.1445 42.928 26.9253 43.2998C26.4026 44.1862 25.8795 45.0725 25.3572 45.9589C25.2111 46.2066 25.0681 46.4563 24.9201 46.703C24.7576 46.9742 24.7501 47.2438 24.9137 47.5163C24.9363 47.5543 24.9579 47.593 24.9805 47.6311C25.082 47.8024 25.1838 47.9734 25.285 48.145C26.0488 49.4415 26.8126 50.7383 27.5768 52.0351C27.5994 52.0732 27.62 52.1125 27.6453 52.1489C27.7937 52.3622 27.9933 52.4886 28.2627 52.4942C28.3302 52.4955 28.3976 52.4958 28.4647 52.4958C30.1722 52.4958 31.8792 52.4958 33.5866 52.4958C33.6652 52.4958 33.7441 52.4975 33.8224 52.4912C34.0365 52.475 34.2061 52.3738 34.3373 52.2117C34.3859 52.1519 34.424 52.0831 34.4634 52.0166C34.7396 51.5499 35.0152 51.0829 35.2903 50.6159C35.7955 49.7577 36.3007 48.8994 36.8048 48.0409C36.9279 47.8308 37.0483 47.6192 37.1677 47.4072C37.2736 47.219 37.2658 47.0275 37.1748 46.8367C37.1508 46.7867 37.1232 46.7388 37.0952 46.6911C36.732 46.0703 36.3691 45.4492 36.0046 44.8291C35.6458 44.2186 35.286 43.6087 34.9258 42.9988C34.7457 42.6939 34.5643 42.3899 34.3825 42.086C34.2453 41.8565 34.0287 41.7579 33.7684 41.7381C33.679 41.7315 33.5887 41.7354 33.499 41.7354C32.6788 41.7348 31.859 41.7351 31.0388 41.7351Z" fill="#F8F8F8"/>
<path d="M12.8328 38.2595C13.3609 38.2694 13.8863 38.3029 14.4117 38.3673C15.1975 38.4639 15.9556 38.6597 16.6891 38.9445C17.489 39.255 18.2157 39.6909 18.8764 40.232C18.928 40.2744 18.9775 40.3197 19.022 40.3689C19.0527 40.4027 19.0608 40.4493 19.0423 40.493C19.0207 40.5436 18.9961 40.5932 18.9681 40.6405C18.5017 41.4323 18.0343 42.2234 17.5672 43.0148C17.4714 43.1769 17.3784 43.3406 17.2819 43.502C17.2597 43.5394 17.2337 43.5781 17.1996 43.6038C17.1777 43.6207 17.1335 43.6277 17.1079 43.6174C17.0678 43.6015 17.0344 43.5685 17 43.5407C16.7235 43.3151 16.4436 43.0942 16.1485 42.8918C15.7516 42.6193 15.3357 42.3808 14.8933 42.1863C14.4384 41.9862 13.9656 41.8543 13.4685 41.8086C13.3009 41.7931 13.1336 41.7643 12.9657 41.7587C12.2744 41.7362 11.5969 41.8146 10.9477 42.0616C10.3983 42.2707 9.89956 42.5607 9.45779 42.9473C8.70812 43.6032 8.20767 44.4122 7.90584 45.3445C7.7207 45.9163 7.6428 46.5027 7.63909 47.103C7.63437 47.8743 7.7696 48.6181 8.06164 49.3312C8.45587 50.2929 9.05344 51.1055 9.93733 51.6962C10.5406 52.0994 11.2009 52.363 11.9246 52.4698C12.8888 52.6117 13.83 52.5145 14.7476 52.2009C15.1098 52.0772 15.4406 51.8871 15.763 51.685C16.2088 51.4058 16.6317 51.0959 17.028 50.7517C17.0688 50.7159 17.1194 50.6898 17.1689 50.6653C17.1841 50.6577 17.2185 50.664 17.23 50.6766C17.2674 50.7166 17.3035 50.7599 17.3312 50.8069C17.6515 51.3506 17.9699 51.8957 18.2896 52.44C18.4858 52.7741 18.6845 53.1071 18.8807 53.4415C18.9141 53.4984 18.9465 53.5573 18.9691 53.6188C18.9789 53.6452 18.9742 53.6896 18.957 53.7111C18.9091 53.7712 18.8548 53.8285 18.7964 53.8791C18.0417 54.5362 17.2017 55.0565 16.2594 55.4193C15.702 55.6339 15.127 55.7798 14.5392 55.877C13.7838 56.002 13.021 56.0533 12.2558 56.0252C11.5132 55.9977 10.7794 55.8959 10.0614 55.6991C9.18935 55.46 8.37392 55.0975 7.61178 54.6196C6.56366 53.9624 5.70574 53.1177 5.03262 52.0928C4.79487 51.731 4.5922 51.35 4.40874 50.9594C4.17302 50.4576 3.99664 49.9351 3.86209 49.3993C3.75991 48.9922 3.68403 48.5804 3.65401 48.1617C3.63513 47.8981 3.60714 47.6345 3.60107 47.3706C3.59534 47.1066 3.60039 46.8414 3.62164 46.5781C3.64626 46.2709 3.66548 45.9636 3.71438 45.6577C3.79835 45.1328 3.93055 44.6212 4.10894 44.1214C4.49979 43.0277 5.08253 42.0415 5.86424 41.1706C6.5242 40.4354 7.29545 39.8365 8.16922 39.3629C8.90169 38.966 9.67699 38.6782 10.4911 38.492C10.8961 38.3994 11.3082 38.3419 11.7223 38.3055C12.0909 38.2734 12.4608 38.245 12.8328 38.2595Z" fill="#F8F8F8"/>
<path d="M70.3004 38.5562C72.5484 38.5562 74.7961 38.5562 77.0441 38.5565C77.1675 38.5565 77.2913 38.5591 77.4143 38.5671C77.4912 38.5717 77.5384 38.617 77.5482 38.6918C77.554 38.7354 77.5573 38.7794 77.5573 38.8234C77.5577 39.8153 77.5583 40.8075 77.557 41.7993C77.5567 42.0189 77.527 42.0461 77.3064 42.0507C77.2053 42.0527 77.1041 42.0517 77.0029 42.0517C75.5643 42.0517 74.1257 42.0514 72.687 42.0523C72.5747 42.0523 72.4628 42.0576 72.3505 42.0636C72.2955 42.0666 72.2469 42.1175 72.2419 42.1714C72.2378 42.2151 72.2338 42.2594 72.2331 42.303C72.2318 42.4132 72.2321 42.5236 72.2321 42.6338C72.2321 46.8225 72.2321 51.0109 72.2318 55.1997C72.2318 55.3316 72.2287 55.4639 72.2233 55.5959C72.2203 55.668 72.1694 55.7106 72.0898 55.7143C72.0223 55.7173 71.9549 55.7186 71.8878 55.7186C70.8201 55.7189 69.7524 55.7183 68.6847 55.7189C68.3627 55.7189 68.3583 55.7196 68.36 55.416C68.3603 55.3277 68.36 55.2397 68.36 55.1514C68.36 50.9517 68.36 46.7521 68.3597 42.5524C68.3597 42.431 68.361 42.31 68.3549 42.1889C68.3505 42.101 68.3283 42.059 68.2032 42.0547C68.102 42.051 68.0008 42.0514 67.8997 42.0514C66.7534 42.051 65.6068 42.0514 64.4606 42.0514C64.1122 42.0514 63.7638 42.0517 63.4155 42.051C63.3369 42.0507 63.2583 42.0474 63.1798 42.0431C63.1204 42.0398 63.0718 41.9955 63.0691 41.9406C63.0644 41.8417 63.06 41.7425 63.06 41.6436C63.0594 40.8829 63.0597 40.1225 63.0597 39.3618C63.0597 39.1856 63.059 39.0089 63.0607 38.8327C63.0611 38.7778 63.0671 38.7229 63.0729 38.6683C63.0783 38.617 63.1309 38.5701 63.1868 38.5651C63.2317 38.5611 63.2765 38.5572 63.3211 38.5565C63.4334 38.5552 63.546 38.5552 63.6583 38.5552C65.8722 38.5562 68.0862 38.5562 70.3004 38.5562Z" fill="#F8F8F8"/>
<path d="M41.7133 34.1568C40.8709 34.1568 40.0281 34.1568 39.1857 34.1568C39.096 34.1568 39.006 34.1538 38.9163 34.1564C38.6681 34.164 38.4883 34.0456 38.3447 33.8614C38.3109 33.8181 38.285 33.7681 38.257 33.7205C37.9373 33.1768 37.6189 32.6324 37.2982 32.089C36.8372 31.3075 36.3742 30.527 35.9125 29.7454C35.7999 29.5549 35.69 29.3628 35.5787 29.1716C35.5733 29.162 35.5672 29.1528 35.5618 29.1428C35.4219 28.8892 35.4246 28.6391 35.5753 28.3891C35.7065 28.1708 35.8303 27.9482 35.9594 27.729C36.3189 27.1188 36.6797 26.5092 37.0396 25.899C37.3374 25.3936 37.6341 24.888 37.9316 24.3826C38.0213 24.2301 38.1113 24.0777 38.2013 23.9249C38.2239 23.8868 38.2475 23.8491 38.2684 23.8101C38.431 23.5038 38.6964 23.3725 39.0394 23.3729C39.1068 23.3729 39.1743 23.3722 39.2417 23.3722C40.882 23.3722 42.522 23.3722 44.1623 23.3722C44.252 23.3722 44.3423 23.3696 44.4317 23.3752C44.7325 23.3934 44.9645 23.5181 45.1176 23.7833C45.4107 24.2913 45.7115 24.795 46.009 25.3004C46.5475 26.2162 47.0861 27.132 47.6246 28.0478C47.6921 28.1622 47.7649 28.2737 47.828 28.3904C47.9706 28.6537 47.9666 28.9206 47.8189 29.1792C47.6432 29.4865 47.4584 29.7888 47.2786 30.094C46.9525 30.647 46.6274 31.2003 46.302 31.7536C45.9037 32.431 45.5051 33.108 45.1085 33.7863C45.0455 33.8945 44.9605 33.9801 44.8587 34.0503C44.7652 34.1144 44.662 34.1554 44.5447 34.1548C44.455 34.1541 44.3649 34.1561 44.2752 34.1561C43.421 34.1568 42.5672 34.1568 41.7133 34.1568Z" fill="#F8F8F8"/>
</svg>
