<svg width="58" height="35" viewBox="0 0 58 35" fill="none" xmlns="http://www.w3.org/2000/svg">
<path d="M18.1023 34.1569C15.4496 34.1569 12.7969 34.1569 10.1446 34.1569C10.0434 34.1569 9.94224 34.1552 9.84107 34.1566C9.44887 34.1618 9.1548 33.9786 8.9184 33.6902C8.86276 33.6221 8.82229 33.5417 8.7771 33.4653C8.14108 32.3881 7.50438 31.3109 6.86971 30.2327C6.41479 29.4598 5.96391 28.6846 5.50864 27.9116C4.92456 26.9194 4.33743 25.9286 3.75335 24.9364C3.42185 24.3735 3.09473 23.8082 2.76357 23.245C2.46073 22.7294 2.15554 22.2154 1.85136 21.7005C1.45173 21.0235 1.06021 20.3422 0.649796 19.6714C0.441386 19.3311 0.426885 18.7794 0.637318 18.4401C0.847751 18.1014 1.04233 17.7535 1.24501 17.4102C1.74546 16.5615 2.2476 15.7135 2.74738 14.8642C3.21344 14.0721 3.67578 13.278 4.14184 12.4856C4.5853 11.7315 5.0318 10.9794 5.47593 10.2257C5.7963 9.68196 6.11499 9.13724 6.43502 8.59318C6.88995 7.82059 7.34656 7.04833 7.80149 6.27573C8.11612 5.7416 8.42908 5.20614 8.7427 4.67168C8.78755 4.59528 8.82971 4.5169 8.88063 4.44446C9.11197 4.11505 9.43032 3.93447 9.84006 3.91661C9.92976 3.91265 10.0198 3.91562 10.1098 3.91562C15.4263 3.91562 20.7428 3.91562 26.0593 3.91562C26.1604 3.91562 26.2616 3.91364 26.3628 3.91695C26.7475 3.92885 27.0507 4.09686 27.2848 4.39089C27.3259 4.44281 27.36 4.50036 27.3937 4.55758C27.9936 5.57921 28.5925 6.60151 29.1928 7.62281C29.8494 8.73937 30.507 9.85559 31.1653 10.9712C31.604 11.715 32.0465 12.4568 32.4845 13.201C32.9341 13.9643 33.3789 14.7303 33.8281 15.4939C34.395 16.458 34.9615 17.4221 35.5338 18.3829C35.7068 18.6733 35.7614 18.9756 35.699 19.3036C35.6781 19.4141 35.6394 19.5153 35.5827 19.6116C35.3025 20.0891 35.0222 20.5664 34.741 21.0436C34.5218 21.4157 34.3002 21.7865 34.0813 22.1585C33.6375 22.9123 33.1951 23.6667 32.7516 24.4208C32.2859 25.2132 31.8205 26.0053 31.3541 26.7974C30.9161 27.5416 30.4767 28.2854 30.0386 29.0295C29.8029 29.4304 29.5695 29.8325 29.3331 30.2331C28.9841 30.8241 28.6327 31.4138 28.284 32.0051C27.9859 32.5105 27.6871 33.0159 27.395 33.5245C27.2638 33.7531 27.0844 33.9274 26.8491 34.0477C26.7179 34.1149 26.5806 34.1595 26.4302 34.1566C26.329 34.1546 26.2279 34.1569 26.1267 34.1569C23.4524 34.1569 20.7775 34.1569 18.1023 34.1569Z" fill="#F8F8F8"/>
<path d="M46.5892 19.0472C45.1843 19.0472 43.7791 19.0472 42.3742 19.0472C42.273 19.0472 42.1718 19.0453 42.0707 19.0469C41.49 19.0568 40.7794 18.6828 40.4611 18.1162C40.0331 17.3539 39.5795 16.6051 39.1354 15.8517C38.6913 15.098 38.2444 14.3462 37.8 13.5928C37.5072 13.0967 37.2172 12.5996 36.9258 12.1028C36.6011 11.5489 36.2787 10.9932 35.9506 10.4412C35.731 10.0721 35.6808 9.67657 35.7371 9.26084C35.7688 9.02833 35.8491 8.81501 35.9708 8.61128C36.3741 7.93625 36.7704 7.25726 37.1687 6.57958C37.5109 5.99716 37.8522 5.41441 38.1945 4.83199C38.7105 3.95356 39.2261 3.0748 39.7428 2.1967C39.9785 1.79585 40.2166 1.39633 40.4523 0.99548C40.8212 0.368079 41.3854 0.0657882 42.1125 0.033707C42.1573 0.0317226 42.2025 0.0333763 42.2474 0.0333763C45.1587 0.0333763 48.0697 0.033707 50.981 0.0327148C51.1614 0.0327148 51.3398 0.0383373 51.5162 0.0806712C52.0184 0.200727 52.4224 0.458369 52.7006 0.890307C52.8024 1.0484 52.8935 1.21343 52.9889 1.37582C53.5278 2.29195 54.0664 3.20842 54.6056 4.12455C55.2625 5.2411 55.9198 6.35733 56.5777 7.47355C56.7632 7.78841 56.9511 8.10195 57.1365 8.41681C57.1928 8.51206 57.2438 8.61029 57.2994 8.70587C57.4306 8.9311 57.4879 9.17816 57.5088 9.43216C57.5308 9.69906 57.4873 9.96133 57.3807 10.2081C57.3153 10.3595 57.2333 10.5054 57.1493 10.6483C56.6121 11.5657 56.0732 12.4819 55.5337 13.398C54.9324 14.419 54.3297 15.4389 53.7281 16.4599C53.4246 16.9752 53.1228 17.4911 52.8203 18.0068C52.7866 18.064 52.7491 18.1192 52.7164 18.1771C52.4611 18.6269 51.8164 19.0568 51.1412 19.0476C50.8377 19.0433 50.5342 19.0472 50.2307 19.0472C49.017 19.0472 47.8033 19.0472 46.5892 19.0472Z" fill="#F8F8F8"/>
<path d="M41.6415 34.1568C40.7991 34.1568 39.9564 34.1568 39.1139 34.1568C39.0242 34.1568 38.9342 34.1538 38.8445 34.1564C38.5963 34.164 38.4165 34.0456 38.2729 33.8614C38.2392 33.8181 38.2132 33.7681 38.1852 33.7205C37.8655 33.1768 37.5472 32.6324 37.2265 32.089C36.7655 31.3075 36.3024 30.527 35.8408 29.7454C35.7281 29.5549 35.6182 29.3628 35.5069 29.1716C35.5015 29.162 35.4954 29.1528 35.49 29.1428C35.3501 28.8892 35.3528 28.6391 35.5035 28.3891C35.6347 28.1708 35.7585 27.9482 35.8876 27.729C36.2471 27.1188 36.608 26.5092 36.9678 25.899C37.2656 25.3936 37.5623 24.888 37.8598 24.3826C37.9495 24.2301 38.0395 24.0777 38.1296 23.9249C38.1522 23.8868 38.1758 23.8491 38.1967 23.8101C38.3592 23.5038 38.6246 23.3725 38.9676 23.3729C39.035 23.3729 39.1025 23.3722 39.1699 23.3722C40.8102 23.3722 42.4502 23.3722 44.0905 23.3722C44.1802 23.3722 44.2706 23.3696 44.3599 23.3752C44.6607 23.3934 44.8928 23.5181 45.0459 23.7833C45.3389 24.2913 45.6397 24.795 45.9372 25.3004C46.4757 26.2162 47.0143 27.132 47.5529 28.0478C47.6203 28.1622 47.6931 28.2737 47.7562 28.3904C47.8989 28.6537 47.8948 28.9206 47.7471 29.1792C47.5714 29.4865 47.3866 29.7888 47.2069 30.094C46.8808 30.647 46.5557 31.2003 46.2302 31.7536C45.832 32.431 45.4333 33.108 45.0368 33.7863C44.9737 33.8945 44.8887 33.9801 44.7869 34.0503C44.6935 34.1144 44.5903 34.1554 44.4729 34.1548C44.3832 34.1541 44.2932 34.1561 44.2035 34.1561C43.3493 34.1568 42.4954 34.1568 41.6415 34.1568Z" fill="#F8F8F8"/>
</svg>
