<svg width="20" height="20" viewBox="0 0 20 20" fill="none" xmlns="http://www.w3.org/2000/svg">
<path d="M10.4417 17.0167H5.17508C2.54175 17.0167 1.66675 15.2667 1.66675 13.5084V6.49173C1.66675 3.8584 2.54175 2.9834 5.17508 2.9834H10.4417C13.0751 2.9834 13.9501 3.8584 13.9501 6.49173V13.5084C13.9501 16.1417 13.0667 17.0167 10.4417 17.0167Z" stroke="white" stroke-width="1.5" stroke-linecap="round" stroke-linejoin="round"/>
<path d="M16.2666 14.2501L13.95 12.6251V7.36678L16.2666 5.74178C17.4 4.95011 18.3333 5.43344 18.3333 6.82511V13.1751C18.3333 14.5668 17.4 15.0501 16.2666 14.2501Z" stroke="white" stroke-width="1.5" stroke-linecap="round" stroke-linejoin="round"/>
<path d="M9.58325 9.16675C10.2736 9.16675 10.8333 8.6071 10.8333 7.91675C10.8333 7.22639 10.2736 6.66675 9.58325 6.66675C8.8929 6.66675 8.33325 7.22639 8.33325 7.91675C8.33325 8.6071 8.8929 9.16675 9.58325 9.16675Z" stroke="white" stroke-width="1.5" stroke-linecap="round" stroke-linejoin="round"/>
</svg>
