<svg width="24" height="24" viewBox="0 0 24 24" fill="none" xmlns="http://www.w3.org/2000/svg">
<path d="M21.72 11.25H20.05V9.58002C20.05 9.1658 19.7142 8.83002 19.3 8.83002C18.8858 8.83002 18.55 9.1658 18.55 9.58002V11.25H16.88C16.4658 11.25 16.13 11.5858 16.13 12C16.13 12.4142 16.4658 12.75 16.88 12.75H18.55V14.42C18.55 14.8342 18.8858 15.17 19.3 15.17C19.7142 15.17 20.05 14.8342 20.05 14.42V12.75H21.72C22.1342 12.75 22.47 12.4142 22.47 12C22.47 11.5858 22.1342 11.25 21.72 11.25Z" fill="white"/>
<path d="M12.1799 4.55L6.29995 8.47C5.964 8.69004 5.57154 8.80813 5.16995 8.81H3.56995C2.46538 8.81 1.56995 9.70543 1.56995 10.81V13.11C1.56995 14.2146 2.46538 15.11 3.56995 15.11H5.16995C5.57154 15.1119 5.964 15.23 6.29995 15.45L12.1799 19.37C12.7988 19.8171 13.6183 19.8728 14.292 19.5136C14.9657 19.1545 15.3762 18.443 15.3499 17.68V6.24C15.3762 5.47696 14.9657 4.76553 14.292 4.40635C13.6183 4.04717 12.7988 4.1029 12.1799 4.55Z" fill="white"/>
</svg>
