<svg width="24" height="24" viewBox="0 0 24 24" fill="none" xmlns="http://www.w3.org/2000/svg">
<path d="M18 16.7501C17.84 16.7501 17.69 16.7001 17.55 16.6001C17.22 16.3501 17.15 15.8801 17.4 15.5501C18.66 13.8701 18.93 11.6401 18.12 9.71007C17.96 9.33007 18.14 8.89007 18.52 8.73007C18.9 8.57007 19.34 8.75007 19.5 9.13007C20.52 11.5501 20.17 14.3601 18.6 16.4601C18.45 16.6501 18.23 16.7501 18 16.7501Z" fill="white"/>
<path d="M19.83 19.25C19.67 19.25 19.52 19.2 19.38 19.1C19.05 18.85 18.98 18.38 19.23 18.05C21.37 15.2 21.84 11.38 20.46 8.08995C20.3 7.70995 20.48 7.26995 20.86 7.10995C21.24 6.94996 21.68 7.12996 21.84 7.50996C23.43 11.29 22.89 15.67 20.43 18.95C20.29 19.15 20.06 19.25 19.83 19.25Z" fill="white"/>
<path d="M14.04 12.96C14.67 12.33 15.75 12.78 15.75 13.67V16.6C15.75 18.32 15.13 19.61 14.02 20.23C13.57 20.48 13.07 20.6 12.55 20.6C11.75 20.6 10.89 20.33 10.01 19.78L9.37001 19.38C8.83001 19.04 8.74001 18.28 9.19001 17.83L14.04 12.96Z" fill="white"/>
<path d="M21.77 2.22988C21.47 1.92988 20.98 1.92988 20.68 2.22988L15.73 7.17988C15.67 5.57988 15.07 4.37988 14.01 3.78988C12.89 3.16988 11.46 3.32988 10 4.23988L7.09 6.05988C6.89 6.17988 6.66 6.24988 6.43 6.24988H5.5H5C2.58 6.24988 1.25 7.57988 1.25 9.99988V13.9999C1.25 16.4199 2.58 17.7499 5 17.7499H5.16L2.22 20.6899C1.92 20.9899 1.92 21.4799 2.22 21.7799C2.38 21.9199 2.57 21.9999 2.77 21.9999C2.97 21.9999 3.16 21.9199 3.31 21.7699L21.77 3.30988C22.08 3.00988 22.08 2.52988 21.77 2.22988Z" fill="white"/>
</svg>
