<svg width="24" height="24" viewBox="0 0 24 24" fill="none" xmlns="http://www.w3.org/2000/svg">
<path d="M19.0001 7.21003L13.7001 10.27C13.4467 10.4189 13.2311 10.6242 13.0701 10.87V8.94003C13.085 8.20366 12.694 7.51867 12.0524 7.15708C11.4107 6.7955 10.6222 6.81584 10.0001 7.21003L4.71008 10.27C4.09327 10.6278 3.71362 11.287 3.71362 12C3.71362 12.7131 4.09327 13.3722 4.71008 13.73L10.0001 16.79C10.6186 17.1471 11.3805 17.1473 11.9992 16.7905C12.6179 16.4338 12.9993 15.7742 13.0001 15.06V13.13C13.1611 13.3758 13.3767 13.5812 13.6301 13.73L19.0001 16.79C19.6186 17.1471 20.3805 17.1473 20.9992 16.7905C21.6179 16.4338 21.9993 15.7742 22.0001 15.06V8.94003C21.9993 8.22587 21.6179 7.56628 20.9992 7.20952C20.3805 6.85275 19.6186 6.85295 19.0001 7.21003Z" fill="#FEFEFF"/>
</svg>
