<svg width="54" height="54" viewBox="0 0 54 54" fill="none" xmlns="http://www.w3.org/2000/svg">
<path d="M23.9625 42.9975V11.0025C23.9625 7.965 22.68 6.75 19.44 6.75H11.2725C8.0325 6.75 6.75 7.965 6.75 11.0025V42.9975C6.75 46.035 8.0325 47.25 11.2725 47.25H19.44C22.68 47.25 23.9625 46.035 23.9625 42.9975Z" fill="white"/>
<path d="M47.25 42.9975V11.0025C47.25 7.965 45.9675 6.75 42.7275 6.75H34.56C31.3425 6.75 30.0375 7.965 30.0375 11.0025V42.9975C30.0375 46.035 31.32 47.25 34.56 47.25H42.7275C45.9675 47.25 47.25 46.035 47.25 42.9975Z" fill="white"/>
</svg>
