<svg width="18" height="18" viewBox="0 0 18 18" fill="none" xmlns="http://www.w3.org/2000/svg">
<mask id="path-1-inside-1_24_11744" fill="white">
<path fill-rule="evenodd" clip-rule="evenodd" d="M10.6875 4.125C10.6875 2.77881 11.7788 1.6875 13.125 1.6875C14.4712 1.6875 15.5625 2.77881 15.5625 4.125C15.5625 5.47119 14.4712 6.5625 13.125 6.5625C12.4053 6.5625 11.7584 6.25057 11.3122 5.75453L9.27425 6.86615L6.99386 8.16923C7.19664 8.5248 7.3125 8.93637 7.3125 9.375C7.3125 9.59726 7.28275 9.81258 7.22702 10.0172L11.3122 12.2455C11.7584 11.7494 12.4053 11.4375 13.125 11.4375C14.4712 11.4375 15.5625 12.5288 15.5625 13.875C15.5625 15.2212 14.4712 16.3125 13.125 16.3125C11.7788 16.3125 10.6875 15.2212 10.6875 13.875C10.6875 13.6527 10.7172 13.4374 10.773 13.2328L6.68778 11.0045C6.24159 11.5006 5.59472 11.8125 4.875 11.8125C3.52881 11.8125 2.4375 10.7212 2.4375 9.375C2.4375 8.02881 3.52881 6.9375 4.875 6.9375C5.36301 6.9375 5.81752 7.08091 6.19869 7.32789L8.72576 5.88385L10.773 4.76719C10.7172 4.56258 10.6875 4.34727 10.6875 4.125ZM13.125 2.8125C12.4001 2.8125 11.8125 3.40013 11.8125 4.125C11.8125 4.84987 12.4001 5.4375 13.125 5.4375C13.8499 5.4375 14.4375 4.84987 14.4375 4.125C14.4375 3.40013 13.8499 2.8125 13.125 2.8125ZM4.875 8.0625C4.15013 8.0625 3.5625 8.65013 3.5625 9.375C3.5625 10.0999 4.15013 10.6875 4.875 10.6875C5.59987 10.6875 6.1875 10.0999 6.1875 9.375C6.1875 8.65013 5.59987 8.0625 4.875 8.0625ZM11.8125 13.875C11.8125 13.1501 12.4001 12.5625 13.125 12.5625C13.8499 12.5625 14.4375 13.1501 14.4375 13.875C14.4375 14.5999 13.8499 15.1875 13.125 15.1875C12.4001 15.1875 11.8125 14.5999 11.8125 13.875Z"/>
</mask>
<path d="M11.3122 5.75453L12.4274 4.75139L11.6347 3.87002L10.5939 4.43768L11.3122 5.75453ZM9.27425 6.86615L8.55597 5.54931L8.54293 5.55642L8.53004 5.56379L9.27425 6.86615ZM6.99386 8.16923L6.24965 6.86686L4.9484 7.61044L5.69086 8.91232L6.99386 8.16923ZM7.22702 10.0172L5.77975 9.62295L5.46826 10.7665L6.50874 11.334L7.22702 10.0172ZM11.3122 12.2455L10.5939 13.5623L11.6347 14.13L12.4274 13.2486L11.3122 12.2455ZM10.773 13.2328L12.2202 13.627L12.5317 12.4835L11.4913 11.916L10.773 13.2328ZM6.68778 11.0045L7.40606 9.68768L6.36535 9.12002L5.57256 10.0014L6.68778 11.0045ZM6.19869 7.32789L5.38303 8.58674L6.14971 9.08351L6.9429 8.63026L6.19869 7.32789ZM8.72576 5.88385L8.00748 4.56701L7.99445 4.57412L7.98155 4.58149L8.72576 5.88385ZM10.773 4.76719L11.4913 6.08403L12.5317 5.51649L12.2202 4.37295L10.773 4.76719ZM13.125 0.1875C10.9504 0.1875 9.1875 1.95038 9.1875 4.125H12.1875C12.1875 3.60723 12.6072 3.1875 13.125 3.1875V0.1875ZM17.0625 4.125C17.0625 1.95038 15.2996 0.1875 13.125 0.1875V3.1875C13.6428 3.1875 14.0625 3.60723 14.0625 4.125H17.0625ZM13.125 8.0625C15.2996 8.0625 17.0625 6.29962 17.0625 4.125H14.0625C14.0625 4.64277 13.6428 5.0625 13.125 5.0625V8.0625ZM10.197 6.75767C10.9157 7.5566 11.9623 8.0625 13.125 8.0625V5.0625C12.8483 5.0625 12.6012 4.94454 12.4274 4.75139L10.197 6.75767ZM9.99253 8.18299L12.0305 7.07137L10.5939 4.43768L8.55597 5.54931L9.99253 8.18299ZM7.73807 9.47159L10.0185 8.16852L8.53004 5.56379L6.24965 6.86686L7.73807 9.47159ZM8.8125 9.375C8.8125 8.66897 8.62534 8.00211 8.29686 7.42614L5.69086 8.91232C5.76795 9.0475 5.8125 9.20378 5.8125 9.375H8.8125ZM8.67429 10.4114C8.76469 10.0795 8.8125 9.73165 8.8125 9.375H5.8125C5.8125 9.46287 5.80081 9.54565 5.77975 9.62295L8.67429 10.4114ZM12.0305 10.9286L7.9453 8.70033L6.50874 11.334L10.5939 13.5623L12.0305 10.9286ZM13.125 9.9375C11.9623 9.9375 10.9157 10.4434 10.197 11.2423L12.4274 13.2486C12.6012 13.0555 12.8483 12.9375 13.125 12.9375V9.9375ZM17.0625 13.875C17.0625 11.7004 15.2996 9.9375 13.125 9.9375V12.9375C13.6428 12.9375 14.0625 13.3572 14.0625 13.875H17.0625ZM13.125 17.8125C15.2996 17.8125 17.0625 16.0496 17.0625 13.875H14.0625C14.0625 14.3928 13.6428 14.8125 13.125 14.8125V17.8125ZM9.1875 13.875C9.1875 16.0496 10.9504 17.8125 13.125 17.8125V14.8125C12.6072 14.8125 12.1875 14.3928 12.1875 13.875H9.1875ZM9.32572 12.8386C9.23531 13.1705 9.1875 13.5183 9.1875 13.875H12.1875C12.1875 13.7871 12.1992 13.7043 12.2202 13.627L9.32572 12.8386ZM5.9695 12.3214L10.0547 14.5497L11.4913 11.916L7.40606 9.68768L5.9695 12.3214ZM4.875 13.3125C6.03774 13.3125 7.08436 12.8066 7.803 12.0077L5.57256 10.0014C5.39882 10.1945 5.1517 10.3125 4.875 10.3125V13.3125ZM0.9375 9.375C0.9375 11.5496 2.70038 13.3125 4.875 13.3125V10.3125C4.35723 10.3125 3.9375 9.89277 3.9375 9.375H0.9375ZM4.875 5.4375C2.70038 5.4375 0.9375 7.20038 0.9375 9.375H3.9375C3.9375 8.85723 4.35723 8.4375 4.875 8.4375V5.4375ZM7.01436 6.06905C6.39761 5.66942 5.6611 5.4375 4.875 5.4375V8.4375C5.06492 8.4375 5.23744 8.4924 5.38303 8.58674L7.01436 6.06905ZM7.98155 4.58149L5.45448 6.02553L6.9429 8.63026L9.46997 7.18622L7.98155 4.58149ZM10.0547 3.45034L8.00748 4.56701L9.44404 7.20069L11.4913 6.08403L10.0547 3.45034ZM9.1875 4.125C9.1875 4.48166 9.23531 4.82951 9.32572 5.16142L12.2202 4.37295C12.1992 4.29565 12.1875 4.21287 12.1875 4.125H9.1875ZM13.3125 4.125C13.3125 4.22855 13.2286 4.3125 13.125 4.3125V1.3125C11.5717 1.3125 10.3125 2.5717 10.3125 4.125H13.3125ZM13.125 3.9375C13.2286 3.9375 13.3125 4.02145 13.3125 4.125H10.3125C10.3125 5.6783 11.5717 6.9375 13.125 6.9375V3.9375ZM12.9375 4.125C12.9375 4.02145 13.0214 3.9375 13.125 3.9375V6.9375C14.6783 6.9375 15.9375 5.6783 15.9375 4.125H12.9375ZM13.125 4.3125C13.0214 4.3125 12.9375 4.22855 12.9375 4.125H15.9375C15.9375 2.5717 14.6783 1.3125 13.125 1.3125V4.3125ZM5.0625 9.375C5.0625 9.47855 4.97855 9.5625 4.875 9.5625V6.5625C3.3217 6.5625 2.0625 7.8217 2.0625 9.375H5.0625ZM4.875 9.1875C4.97855 9.1875 5.0625 9.27145 5.0625 9.375H2.0625C2.0625 10.9283 3.3217 12.1875 4.875 12.1875V9.1875ZM4.6875 9.375C4.6875 9.27145 4.77145 9.1875 4.875 9.1875V12.1875C6.4283 12.1875 7.6875 10.9283 7.6875 9.375H4.6875ZM4.875 9.5625C4.77145 9.5625 4.6875 9.47855 4.6875 9.375H7.6875C7.6875 7.8217 6.4283 6.5625 4.875 6.5625V9.5625ZM13.125 11.0625C11.5717 11.0625 10.3125 12.3217 10.3125 13.875H13.3125C13.3125 13.9786 13.2286 14.0625 13.125 14.0625V11.0625ZM15.9375 13.875C15.9375 12.3217 14.6783 11.0625 13.125 11.0625V14.0625C13.0214 14.0625 12.9375 13.9786 12.9375 13.875H15.9375ZM13.125 16.6875C14.6783 16.6875 15.9375 15.4283 15.9375 13.875H12.9375C12.9375 13.7714 13.0214 13.6875 13.125 13.6875V16.6875ZM10.3125 13.875C10.3125 15.4283 11.5717 16.6875 13.125 16.6875V13.6875C13.2286 13.6875 13.3125 13.7714 13.3125 13.875H10.3125Z" fill="#3D4D53" mask="url(#path-1-inside-1_24_11744)"/>
</svg>
