<svg width="25" height="24" viewBox="0 0 25 24" fill="none" xmlns="http://www.w3.org/2000/svg">
<path d="M12.1872 12C14.9538 12 17.1966 9.76142 17.1966 7C17.1966 4.23858 14.9538 2 12.1872 2C9.42062 2 7.17786 4.23858 7.17786 7C7.17786 9.76142 9.42062 12 12.1872 12Z" stroke="#3D4D53" stroke-width="1.5" stroke-linecap="round" stroke-linejoin="round"/>
<path d="M19.4107 15.74L15.8641 19.2801C15.7238 19.4201 15.5936 19.68 15.5635 19.87L15.3732 21.22C15.303 21.71 15.6437 22.05 16.1346 21.98L17.4871 21.79C17.6775 21.76 17.948 21.63 18.0782 21.49L21.6248 17.95C22.236 17.34 22.5265 16.63 21.6248 15.73C20.7332 14.84 20.0219 15.13 19.4107 15.74Z" stroke="#3D4D53" stroke-width="1.5" stroke-miterlimit="10" stroke-linecap="round" stroke-linejoin="round"/>
<path d="M18.8998 16.25C19.2003 17.33 20.0419 18.17 21.1239 18.47" stroke="#3D4D53" stroke-width="1.5" stroke-miterlimit="10" stroke-linecap="round" stroke-linejoin="round"/>
<path d="M3.58118 22C3.58118 18.13 7.43841 15 12.1873 15C13.2292 15 14.2311 15.15 15.1628 15.43" stroke="#3D4D53" stroke-width="1.5" stroke-linecap="round" stroke-linejoin="round"/>
</svg>
