<svg width="16" height="16" viewBox="0 0 16 16" fill="none" xmlns="http://www.w3.org/2000/svg">
<path d="M8.97205 8.00671L15.3017 1.69852C15.5661 1.43159 15.5661 0.999163 15.3017 0.732234C15.0419 0.460534 14.6129 0.452374 14.3432 0.714002L8.01356 7.02219L1.76533 0.714002C1.63723 0.577401 1.45899 0.5 1.27252 0.5C1.08605 0.5 0.907815 0.577401 0.779715 0.714002C0.54525 0.971897 0.54525 1.3677 0.779715 1.62559L7.02795 7.92467L0.698334 14.2237C0.433889 14.4907 0.433889 14.9231 0.698334 15.19C0.824228 15.32 0.997371 15.3925 1.17758 15.3906C1.36125 15.4056 1.54335 15.3466 1.68395 15.2265L8.01356 8.9183L14.3432 15.2994C14.4691 15.4294 14.6422 15.5019 14.8224 15.5C15.0024 15.5008 15.1752 15.4285 15.3017 15.2994C15.5661 15.0325 15.5661 14.6001 15.3017 14.3331L8.97205 8.00671Z" fill="#3D4D53" fill-opacity="0.5"/>
</svg>
