<svg width="14" height="16" viewBox="0 0 14 16" fill="none" xmlns="http://www.w3.org/2000/svg">
<mask id="path-1-inside-1_329_1704" fill="white">
<path fill-rule="evenodd" clip-rule="evenodd" d="M8.6875 3.125C8.6875 1.77881 9.77881 0.6875 11.125 0.6875C12.4712 0.6875 13.5625 1.77881 13.5625 3.125C13.5625 4.47119 12.4712 5.5625 11.125 5.5625C10.4053 5.5625 9.75842 5.25057 9.31223 4.75453L7.27425 5.86615L4.99386 7.16923C5.19664 7.5248 5.3125 7.93637 5.3125 8.375C5.3125 8.59726 5.28275 8.81258 5.22702 9.01718L9.31223 11.2455C9.75842 10.7494 10.4053 10.4375 11.125 10.4375C12.4712 10.4375 13.5625 11.5288 13.5625 12.875C13.5625 14.2212 12.4712 15.3125 11.125 15.3125C9.77881 15.3125 8.6875 14.2212 8.6875 12.875C8.6875 12.6527 8.71725 12.4374 8.77298 12.2328L4.68778 10.0045C4.24159 10.5006 3.59472 10.8125 2.875 10.8125C1.52881 10.8125 0.4375 9.72119 0.4375 8.375C0.4375 7.02881 1.52881 5.9375 2.875 5.9375C3.36301 5.9375 3.81752 6.08091 4.19869 6.32789L6.72576 4.88385L8.77298 3.76719C8.71725 3.56258 8.6875 3.34727 8.6875 3.125ZM11.125 1.8125C10.4001 1.8125 9.8125 2.40013 9.8125 3.125C9.8125 3.84987 10.4001 4.4375 11.125 4.4375C11.8499 4.4375 12.4375 3.84987 12.4375 3.125C12.4375 2.40013 11.8499 1.8125 11.125 1.8125ZM2.875 7.0625C2.15013 7.0625 1.5625 7.65013 1.5625 8.375C1.5625 9.09987 2.15013 9.6875 2.875 9.6875C3.59987 9.6875 4.1875 9.09987 4.1875 8.375C4.1875 7.65013 3.59987 7.0625 2.875 7.0625ZM9.8125 12.875C9.8125 12.1501 10.4001 11.5625 11.125 11.5625C11.8499 11.5625 12.4375 12.1501 12.4375 12.875C12.4375 13.5999 11.8499 14.1875 11.125 14.1875C10.4001 14.1875 9.8125 13.5999 9.8125 12.875Z"/>
</mask>
<path d="M9.31223 4.75453L10.4274 3.75139L9.63466 2.87002L8.59395 3.43768L9.31223 4.75453ZM7.27425 5.86615L6.55597 4.54931L6.54293 4.55642L6.53004 4.56379L7.27425 5.86615ZM4.99386 7.16923L4.24965 5.86686L2.9484 6.61044L3.69086 7.91232L4.99386 7.16923ZM5.22702 9.01718L3.77975 8.62295L3.46826 9.76649L4.50874 10.334L5.22702 9.01718ZM9.31223 11.2455L8.59395 12.5623L9.63466 13.13L10.4274 12.2486L9.31223 11.2455ZM8.77298 12.2328L10.2202 12.627L10.5317 11.4835L9.49126 10.916L8.77298 12.2328ZM4.68778 10.0045L5.40606 8.68768L4.36535 8.12002L3.57256 9.00138L4.68778 10.0045ZM4.19869 6.32789L3.38303 7.58674L4.14971 8.08351L4.9429 7.63026L4.19869 6.32789ZM6.72576 4.88385L6.00748 3.56701L5.99445 3.57412L5.98155 3.58149L6.72576 4.88385ZM8.77298 3.76719L9.49126 5.08403L10.5317 4.51649L10.2202 3.37295L8.77298 3.76719ZM11.125 -0.8125C8.95038 -0.8125 7.1875 0.950379 7.1875 3.125H10.1875C10.1875 2.60723 10.6072 2.1875 11.125 2.1875V-0.8125ZM15.0625 3.125C15.0625 0.950379 13.2996 -0.8125 11.125 -0.8125V2.1875C11.6428 2.1875 12.0625 2.60723 12.0625 3.125H15.0625ZM11.125 7.0625C13.2996 7.0625 15.0625 5.29962 15.0625 3.125H12.0625C12.0625 3.64277 11.6428 4.0625 11.125 4.0625V7.0625ZM8.19701 5.75767C8.91565 6.5566 9.96226 7.0625 11.125 7.0625V4.0625C10.8483 4.0625 10.6012 3.94454 10.4274 3.75139L8.19701 5.75767ZM7.99253 7.18299L10.0305 6.07137L8.59395 3.43768L6.55597 4.54931L7.99253 7.18299ZM5.73807 8.47159L8.01846 7.16852L6.53004 4.56379L4.24965 5.86686L5.73807 8.47159ZM6.8125 8.375C6.8125 7.66897 6.62534 7.00211 6.29686 6.42614L3.69086 7.91232C3.76795 8.0475 3.8125 8.20378 3.8125 8.375H6.8125ZM6.67429 9.4114C6.76469 9.0795 6.8125 8.73165 6.8125 8.375H3.8125C3.8125 8.46287 3.80081 8.54565 3.77975 8.62295L6.67429 9.4114ZM10.0305 9.92863L5.9453 7.70033L4.50874 10.334L8.59395 12.5623L10.0305 9.92863ZM11.125 8.9375C9.96226 8.9375 8.91565 9.4434 8.19701 10.2423L10.4274 12.2486C10.6012 12.0555 10.8483 11.9375 11.125 11.9375V8.9375ZM15.0625 12.875C15.0625 10.7004 13.2996 8.9375 11.125 8.9375V11.9375C11.6428 11.9375 12.0625 12.3572 12.0625 12.875H15.0625ZM11.125 16.8125C13.2996 16.8125 15.0625 15.0496 15.0625 12.875H12.0625C12.0625 13.3928 11.6428 13.8125 11.125 13.8125V16.8125ZM7.1875 12.875C7.1875 15.0496 8.95038 16.8125 11.125 16.8125V13.8125C10.6072 13.8125 10.1875 13.3928 10.1875 12.875H7.1875ZM7.32572 11.8386C7.23531 12.1705 7.1875 12.5183 7.1875 12.875H10.1875C10.1875 12.7871 10.1992 12.7043 10.2202 12.627L7.32572 11.8386ZM3.9695 11.3214L8.0547 13.5497L9.49126 10.916L5.40606 8.68768L3.9695 11.3214ZM2.875 12.3125C4.03774 12.3125 5.08436 11.8066 5.803 11.0077L3.57256 9.00138C3.39882 9.19454 3.1517 9.3125 2.875 9.3125V12.3125ZM-1.0625 8.375C-1.0625 10.5496 0.700379 12.3125 2.875 12.3125V9.3125C2.35723 9.3125 1.9375 8.89277 1.9375 8.375H-1.0625ZM2.875 4.4375C0.700379 4.4375 -1.0625 6.20038 -1.0625 8.375H1.9375C1.9375 7.85723 2.35723 7.4375 2.875 7.4375V4.4375ZM5.01436 5.06905C4.39761 4.66942 3.6611 4.4375 2.875 4.4375V7.4375C3.06492 7.4375 3.23744 7.4924 3.38303 7.58674L5.01436 5.06905ZM5.98155 3.58149L3.45448 5.02553L4.9429 7.63026L7.46997 6.18622L5.98155 3.58149ZM8.0547 2.45034L6.00748 3.56701L7.44404 6.20069L9.49126 5.08403L8.0547 2.45034ZM7.1875 3.125C7.1875 3.48166 7.23531 3.82951 7.32572 4.16142L10.2202 3.37295C10.1992 3.29565 10.1875 3.21287 10.1875 3.125H7.1875ZM11.3125 3.125C11.3125 3.22855 11.2286 3.3125 11.125 3.3125V0.3125C9.5717 0.3125 8.3125 1.5717 8.3125 3.125H11.3125ZM11.125 2.9375C11.2286 2.9375 11.3125 3.02145 11.3125 3.125H8.3125C8.3125 4.6783 9.5717 5.9375 11.125 5.9375V2.9375ZM10.9375 3.125C10.9375 3.02145 11.0214 2.9375 11.125 2.9375V5.9375C12.6783 5.9375 13.9375 4.6783 13.9375 3.125H10.9375ZM11.125 3.3125C11.0214 3.3125 10.9375 3.22855 10.9375 3.125H13.9375C13.9375 1.5717 12.6783 0.3125 11.125 0.3125V3.3125ZM3.0625 8.375C3.0625 8.47855 2.97855 8.5625 2.875 8.5625V5.5625C1.3217 5.5625 0.0625 6.8217 0.0625 8.375H3.0625ZM2.875 8.1875C2.97855 8.1875 3.0625 8.27145 3.0625 8.375H0.0625C0.0625 9.9283 1.3217 11.1875 2.875 11.1875V8.1875ZM2.6875 8.375C2.6875 8.27145 2.77145 8.1875 2.875 8.1875V11.1875C4.4283 11.1875 5.6875 9.9283 5.6875 8.375H2.6875ZM2.875 8.5625C2.77145 8.5625 2.6875 8.47855 2.6875 8.375H5.6875C5.6875 6.8217 4.4283 5.5625 2.875 5.5625V8.5625ZM11.125 10.0625C9.5717 10.0625 8.3125 11.3217 8.3125 12.875H11.3125C11.3125 12.9786 11.2286 13.0625 11.125 13.0625V10.0625ZM13.9375 12.875C13.9375 11.3217 12.6783 10.0625 11.125 10.0625V13.0625C11.0214 13.0625 10.9375 12.9786 10.9375 12.875H13.9375ZM11.125 15.6875C12.6783 15.6875 13.9375 14.4283 13.9375 12.875H10.9375C10.9375 12.7714 11.0214 12.6875 11.125 12.6875V15.6875ZM8.3125 12.875C8.3125 14.4283 9.5717 15.6875 11.125 15.6875V12.6875C11.2286 12.6875 11.3125 12.7714 11.3125 12.875H8.3125Z" fill="#3D4D53" mask="url(#path-1-inside-1_329_1704)"/>
</svg>
