<svg width="4" height="16" viewBox="0 0 4 16" fill="none" xmlns="http://www.w3.org/2000/svg">
<path d="M2 8H2.01M2 2H2.01M2 14H2.01M3 8C3 8.55228 2.55228 9 2 9C1.44772 9 1 8.55228 1 8C1 7.44772 1.44772 7 2 7C2.55228 7 3 7.44772 3 8ZM3 14C3 14.5523 2.55228 15 2 15C1.44772 15 1 14.5523 1 14C1 13.4477 1.44772 13 2 13C2.55228 13 3 13.4477 3 14ZM3 2C3 2.55228 2.55228 3 2 3C1.44772 3 1 2.55228 1 2C1 1.44772 1.44772 1 2 1C2.55228 1 3 1.44772 3 2Z" stroke="#3D4D53" stroke-width="2" stroke-linecap="round" stroke-linejoin="round"/>
</svg>
