<svg width="24" height="24" viewBox="0 0 24 24" fill="none" xmlns="http://www.w3.org/2000/svg">
<path d="M12.53 20.4203H6.21C3.05 20.4203 2 18.3203 2 16.2103V7.79032C2 4.63032 3.05 3.58032 6.21 3.58032H12.53C15.69 3.58032 16.74 4.63032 16.74 7.79032V16.2103C16.74 19.3703 15.68 20.4203 12.53 20.4203Z" stroke="#3D4D53" stroke-width="1.5" stroke-linecap="round" stroke-linejoin="round"/>
<path d="M19.52 17.1001L16.74 15.1501V8.84013L19.52 6.89013C20.88 5.94013 22 6.52013 22 8.19013V15.8101C22 17.4801 20.88 18.0601 19.52 17.1001Z" stroke="#3D4D53" stroke-width="1.5" stroke-linecap="round" stroke-linejoin="round"/>
<path d="M11.5 11.0002C12.3284 11.0002 13 10.3287 13 9.50024C13 8.67182 12.3284 8.00024 11.5 8.00024C10.6716 8.00024 10 8.67182 10 9.50024C10 10.3287 10.6716 11.0002 11.5 11.0002Z" stroke="#3D4D53" stroke-width="1.5" stroke-linecap="round" stroke-linejoin="round"/>
</svg>
